<svg xmlns="http://www.w3.org/2000/svg" xmlns:xlink="http://www.w3.org/1999/xlink" viewBox="0 0 69 70.53"><defs><style>.cls-1{fill:#f5bc78;}.cls-2{fill:#c7743f;}.cls-3{fill:url(#linear-gradient);}.cls-4{fill:#ffedff;}.cls-5{fill:#c9408c;}.cls-6{fill:#ff6ec0;}.cls-7{fill:#2da4b3;}.cls-8{fill:#b8a72c;}.cls-9{fill:#9c51b3;}.cls-10{fill:#dc73ff;}.cls-11{fill:#fff39b;}.cls-12{fill:#d195a4;}.cls-13{fill:#ba6d82;}.cls-14{fill:#afe9f0;}.cls-15{fill:#e491ff;}.cls-16{fill:#ebb0ff;}.cls-17{fill:#ffedf2;}</style><linearGradient id="linear-gradient" x1="11.01" y1="57.22" x2="58.3" y2="9.93" gradientUnits="userSpaceOnUse"><stop offset="0.01" stop-color="#c8e9ec"/><stop offset="1" stop-color="#f39"/></linearGradient></defs><g id="Layer_2" data-name="Layer 2"><g id="Layer_1-2" data-name="Layer 1"><path class="cls-1" d="M34.5,24A10.5,10.5,0,0,0,24,34.48v.06a10.74,10.74,0,0,1,21,0v-.06A10.5,10.5,0,0,0,34.5,24Zm33.61,4.22-.32,0a34.24,34.24,0,0,1,.44,5.48A33.73,33.73,0,1,1,2.36,23.45a34.5,34.5,0,1,0,65.75,4.76Z"/><path class="cls-2" d="M68.23,34.28a35.29,35.29,0,0,0-.44-5.38,16.3,16.3,0,0,1-1.86.11A15.5,15.5,0,0,1,50.6,13.33a.92.92,0,0,1,0-.16.61.61,0,0,1,0-.14,15.21,15.21,0,0,1,1.52-6.66q.24-.5.51-1A32.93,32.93,0,0,0,37,.09Q35.76,0,34.5,0c-.94,0-1.87,0-2.79.11A33.91,33.91,0,0,0,2.39,23.91l0,.08A35.27,35.27,0,0,0,.77,34.24v.26c0,19,15.1,34.5,33.73,34.5S68.23,53.55,68.23,34.5ZM24,35.27c0-.13,0-.25,0-.37a10.49,10.49,0,0,1,21,0c0,.12,0,.24,0,.37v0a10.5,10.5,0,1,1-21,0Z"/><path class="cls-3" d="M67.79,28.25a14.29,14.29,0,0,1-1.86.12,15.32,15.32,0,0,1-15.32-15.2.61.61,0,0,1,0-.14,15.21,15.21,0,0,1,1.52-6.66q.24-.5.51-1l.06-.09A33.5,33.5,0,0,0,37,.09Q35.76,0,34.5,0c-.94,0-1.87,0-2.79.11A33.74,33.74,0,0,0,2.39,23.38l0,.07A33.91,33.91,0,0,0,.77,33.73v.51a33.73,33.73,0,0,0,67.46,0v-.55A34.24,34.24,0,0,0,67.79,28.25ZM45,34.54c0,.12,0,.24,0,.36a10.5,10.5,0,0,1-21,0c0-.12,0-.24,0-.36v-.06a10.5,10.5,0,0,1,21,0Z"/><path class="cls-4" d="M50.5,51.08a24.2,24.2,0,0,1-31.24,0,1.72,1.72,0,0,1-.41-2.46h0a1.81,1.81,0,0,1,2.39.12,21.15,21.15,0,0,0,27.28,0,1.82,1.82,0,0,1,2.4-.12h0A1.72,1.72,0,0,1,50.5,51.08Z"/><circle class="cls-4" cx="52.9" cy="46" r="1.53"/><rect class="cls-5" x="18" y="21.53" width="8" height="2" rx="1" transform="translate(33.83 -6.65) rotate(66.38)"/><rect class="cls-6" x="18" y="20.53" width="8" height="2" rx="1" transform="translate(32.91 -7.25) rotate(66.38)"/><rect class="cls-7" x="22" y="8.53" width="8" height="2" rx="1" transform="translate(24.32 -18.11) rotate(66.38)"/><rect class="cls-8" x="9" y="17.53" width="8" height="2" rx="1" transform="translate(11.8 -4.07) rotate(32)"/><rect class="cls-9" x="7" y="26.53" width="8" height="2" rx="1" transform="translate(-4.47 2.24) rotate(-9.68)"/><rect class="cls-10" x="7" y="25.53" width="8" height="2" rx="1" transform="translate(-4.31 2.23) rotate(-9.68)"/><rect class="cls-5" x="14" y="34.53" width="8" height="2" rx="1" transform="translate(30.4 -2.32) rotate(45)"/><rect class="cls-6" x="14" y="33.53" width="8" height="2" rx="1" transform="translate(29.69 -2.61) rotate(45)"/><rect class="cls-7" x="47" y="27.53" width="8" height="2" rx="1" transform="translate(1.06 -1.81) rotate(2.05)"/><rect class="cls-9" x="47" y="35.53" width="8" height="2" rx="1" transform="translate(40.77 -25.36) rotate(45)"/><rect class="cls-8" x="55" y="32.53" width="8" height="2" rx="1" transform="translate(-4.51 57.45) rotate(-50.25)"/><rect class="cls-11" x="55" y="31.53" width="8" height="2" rx="1" transform="translate(-3.74 57.09) rotate(-50.25)"/><rect class="cls-12" x="5" y="37.53" width="8" height="2" rx="1" transform="translate(-22.17 14.16) rotate(-38.84)"/><rect class="cls-13" x="29" y="18.53" width="8" height="2" rx="1" transform="translate(70.15 10.01) rotate(135)"/><rect class="cls-8" x="39" y="19.53" width="8" height="2" rx="1" transform="translate(51.73 -26.31) rotate(75.03)"/><rect class="cls-9" x="36" y="7.53" width="8" height="2" rx="1" transform="translate(14.7 -23.61) rotate(39.75)"/><rect class="cls-14" x="47" y="26.53" width="8" height="2" rx="1" transform="translate(1.02 -1.81) rotate(2.05)"/><rect class="cls-15" x="47" y="34.53" width="8" height="2" rx="1" transform="translate(40.06 -25.65) rotate(45)"/><rect class="cls-16" x="36" y="6.53" width="8" height="2" rx="1" transform="translate(14.06 -23.84) rotate(39.75)"/><rect class="cls-14" x="22" y="7.53" width="8" height="2" rx="1" transform="translate(23.4 -18.71) rotate(66.38)"/><rect class="cls-11" x="39" y="18.53" width="8" height="2" rx="1" transform="translate(50.77 -27.05) rotate(75.03)"/><rect class="cls-17" x="29" y="17.53" width="8" height="2" rx="1" transform="translate(69.44 8.3) rotate(135)"/><rect class="cls-11" x="9" y="16.53" width="8" height="2" rx="1" transform="translate(11.27 -4.22) rotate(32)"/><rect class="cls-17" x="5" y="36.53" width="8" height="2" rx="1" transform="translate(-21.55 13.94) rotate(-38.84)"/></g></g></svg>