<?xml version="1.0" standalone="no"?>
<!DOCTYPE svg PUBLIC "-//W3C//DTD SVG 20010904//EN"
 "http://www.w3.org/TR/2001/REC-SVG-20010904/DTD/svg10.dtd">
<svg version="1.0" xmlns="http://www.w3.org/2000/svg"
 width="568.000000pt" height="568.000000pt" viewBox="0 0 568.000000 568.000000"
 preserveAspectRatio="xMidYMid meet">
<metadata>
Created by potrace 1.14, written by Peter Selinger 2001-2017
</metadata>
<g transform="translate(0.000000,568.000000) scale(0.100000,-0.100000)"
fill="#000000" stroke="none">
<path d="M2629 5676 c-2 -2 -31 -6 -64 -9 -33 -3 -89 -11 -125 -16 -68 -11
-84 -14 -165 -31 -27 -6 -59 -12 -71 -14 -25 -5 -146 -40 -228 -67 -251 -81
-571 -250 -781 -413 -33 -25 -73 -56 -90 -69 -16 -12 -97 -89 -180 -172 -159
-159 -279 -305 -370 -451 -30 -49 -58 -93 -63 -99 -17 -21 -132 -255 -163
-331 -56 -140 -118 -327 -112 -337 4 -6 1 -7 -7 -2 -10 6 -12 4 -7 -8 3 -9 1
-17 -4 -19 -6 -2 -11 -22 -12 -45 -1 -22 -5 -39 -9 -37 -7 4 -25 -53 -34 -106
-3 -14 -8 -34 -11 -45 -4 -11 -8 -24 -9 -30 -1 -5 -6 -35 -12 -65 -6 -30 -14
-75 -18 -100 -4 -25 -8 -56 -11 -70 -25 -157 -24 -586 1 -720 3 -14 8 -45 11
-70 5 -46 12 -85 15 -85 1 0 3 -11 5 -25 2 -14 6 -38 10 -55 4 -16 8 -39 10
-50 4 -23 34 -133 43 -155 3 -8 6 -19 8 -25 19 -80 113 -308 176 -430 23 -44
49 -95 57 -113 8 -17 19 -32 23 -32 4 0 8 -5 8 -11 0 -13 126 -206 157 -239
13 -14 23 -29 23 -33 0 -5 6 -14 12 -22 7 -7 33 -37 58 -66 66 -78 168 -187
224 -239 137 -127 126 -117 252 -212 141 -107 291 -197 460 -279 81 -39 152
-72 158 -73 6 -1 43 -14 81 -29 112 -43 321 -102 430 -121 17 -3 41 -8 55 -11
14 -3 48 -8 75 -11 28 -3 57 -7 65 -9 59 -17 440 -25 585 -12 44 4 123 14 175
22 122 20 137 23 158 29 9 3 29 7 43 10 29 5 146 35 169 43 8 4 20 7 26 8 22
5 169 57 201 71 17 8 34 14 37 14 4 0 59 26 124 57 64 31 123 58 131 59 8 2
17 7 20 11 3 5 37 27 75 49 109 62 189 115 194 127 2 4 10 7 18 7 8 0 14 3 14
8 0 4 16 18 35 31 19 13 45 32 57 42 13 10 28 22 33 26 77 59 234 210 325 313
91 103 117 137 191 243 32 45 61 87 66 93 14 18 33 48 40 64 4 8 16 31 28 50
71 114 210 421 229 505 2 6 15 49 30 97 15 48 29 97 31 109 2 11 6 28 9 37 3
9 8 29 11 44 3 16 7 38 10 50 11 51 15 75 21 118 3 25 7 56 10 70 26 143 25
649 -2 732 -3 9 -7 32 -9 50 -5 44 -20 135 -25 148 -4 9 -7 25 -8 42 -2 16
-32 20 -57 7 -14 -7 -200 -3 -270 5 -200 24 -419 111 -580 230 -120 89 -305
286 -305 326 0 5 -4 10 -9 10 -13 0 -107 198 -134 285 -58 183 -74 407 -43
570 4 17 9 46 12 65 10 60 64 211 103 290 l38 75 -78 47 c-119 71 -406 206
-474 223 -5 1 -17 5 -25 8 -31 12 -176 55 -210 63 -19 4 -39 9 -45 10 -5 1
-32 7 -60 14 -27 6 -61 13 -75 15 -14 3 -36 7 -49 9 -13 3 -49 8 -80 12 -31 3
-65 8 -76 11 -24 6 -500 15 -506 9z m297 -2100 c146 -14 305 -74 425 -163 58
-42 179 -161 179 -175 0 -4 7 -13 15 -21 27 -27 89 -150 116 -231 26 -79 30
-141 14 -246 -33 -223 -175 -450 -355 -566 -25 -16 -47 -31 -50 -35 -3 -3 -43
-22 -90 -42 -137 -58 -198 -70 -345 -70 -118 0 -191 14 -300 56 -217 83 -413
279 -485 488 -12 35 -25 71 -27 79 -22 60 -37 280 -19 280 5 0 7 3 3 6 -7 8
42 144 60 165 7 8 13 20 13 26 0 37 146 209 229 271 20 15 38 30 41 33 14 17
167 90 225 108 82 26 102 30 190 37 39 4 72 8 74 10 2 2 7 2 10 0 3 -2 38 -7
77 -10z"/>
</g>
</svg>
